<?xml version="1.0" standalone="no"?><!DOCTYPE svg PUBLIC "-//W3C//DTD SVG 1.1//EN" "http://www.w3.org/Graphics/SVG/1.1/DTD/svg11.dtd"><svg class="icon" width="128px" height="128.00px" viewBox="0 0 1024 1024" version="1.1" xmlns="http://www.w3.org/2000/svg"><path fill="#1296db" d="M238.933333 443.733333h17.066667a119.466667 119.466667 0 0 1 0 238.933334H238.933333v136.533333h136.533334v-19.182933a117.3504 117.3504 0 1 1 234.7008 0V819.2H716.8v-204.6976L785.066667 614.4A68.3008 68.3008 0 0 0 785.066667 477.866667h-68.266667v-136.533334h-136.533333V273.066667a68.266667 68.266667 0 1 0-136.533334 0v68.266666H238.933333v102.4z m273.066667-307.2a136.533333 136.533333 0 0 1 136.533333 136.533334h136.533334v136.533333a136.533333 136.533333 0 0 1 0.034133 273.1008L785.066667 887.466667h-243.165867v-87.4496a49.083733 49.083733 0 0 0-98.167467 0V887.466667H170.666667v-273.066667h85.333333a51.2 51.2 0 0 0 0-102.4H170.666667V273.066667h204.8a136.533333 136.533333 0 0 1 136.533333-136.533334z"  /></svg>